<?xml version="1.0" encoding="utf-8"?>
<!-- Generator: Adobe Illustrator 16.0.0, SVG Export Plug-In . SVG Version: 6.00 Build 0)  -->
<!DOCTYPE svg PUBLIC "-//W3C//DTD SVG 1.1//EN" "http://www.w3.org/Graphics/SVG/1.1/DTD/svg11.dtd">
<svg version="1.1" id="Layer_1" xmlns="http://www.w3.org/2000/svg" xmlns:xlink="http://www.w3.org/1999/xlink" x="0px" y="0px"
	 width="512px" height="512px" viewBox="0 0 512 512" enable-background="new 0 0 512 512" xml:space="preserve">
<path fill="#F9ED69" d="M511.99,475.432c0,20.191-16.369,36.559-36.559,36.559H36.682c-20.192,0-36.558-16.367-36.558-36.559V36.682
	c0-20.19,16.366-36.558,36.558-36.558h438.75c20.189,0,36.559,16.368,36.559,36.558V475.432z"/>
<g>
	<path d="M207.966,102.893v229.294c0,26.096-4.169,46.17-12.507,60.219c-5.095,8.338-12.355,15.75-21.771,22.234
		c-14.208,9.729-30.728,14.592-49.564,14.592c-27.486,0-49.489-10.807-66.009-32.426c-9.264-11.889-15.518-24.857-18.76-38.91
		c-0.619-2.932-0.927-5.402-0.927-7.412c0-7.1,3.011-12.582,9.033-16.443c2.779-1.697,6.022-2.549,9.728-2.549
		c8.49,0,14.28,5.406,17.371,16.213c9.265,30.885,25.861,46.322,49.796,46.322c31.036,0,46.554-20.303,46.554-60.914v-230.22
		c0-5.711,2.161-10.111,6.485-13.202c3.395-2.468,7.332-3.706,11.812-3.706C201.713,85.985,207.966,91.624,207.966,102.893z"/>
	<path d="M372.643,81.585c17.602,0,33.658,3.937,48.174,11.812c14.975,8.03,26.248,19.303,33.816,33.815
		c1.852,3.706,2.779,7.104,2.779,10.191c0,7.26-3.322,12.355-9.961,15.286c-2.934,1.238-6.176,1.853-9.727,1.853
		c-6.641,0-12.662-4.864-18.066-14.591c-9.111-16.828-24.629-25.246-46.553-25.246c-16.676,0-29.494,5.095-38.447,15.286
		c-8.031,9.265-12.045,20.15-12.045,32.657c0,10.81,3.627,21.077,10.887,30.804c5.711,7.723,13.354,15.055,22.93,22.003
		c4.783,3.243,14.512,9.344,29.182,18.297c25.629,15.598,43.463,28.257,53.502,37.983c20.846,20.23,31.268,43.699,31.268,70.41
		c0,28.105-10.189,50.492-30.572,67.168c-16.367,13.281-37.289,19.918-62.766,19.918c-39.529,0-68.25-12.738-86.16-38.217
		c-6.178-8.645-9.264-15.9-9.264-21.77c0-5.096,2.084-9.266,6.254-12.508c3.242-2.623,6.867-3.938,10.885-3.938
		c7.256,0,14.049,5.176,20.383,15.518c10.498,17.451,29.49,26.172,56.975,26.172c16.059,0,28.951-4.014,38.68-12.043
		c11.426-9.572,17.139-23.006,17.139-40.301c0-19.455-7.953-35.898-23.855-49.332c-13.281-11.426-32.58-24.32-57.902-38.68
		c-23.162-13.122-40.148-27.638-50.955-43.543c-8.801-13.122-13.201-28.872-13.201-47.249c0-32.889,13.354-56.434,40.068-70.641
		C339.828,85.291,355.348,81.585,372.643,81.585z"/>
</g>
</svg>
